<svg width="20" height="19" viewBox="0 0 20 19" fill="none" xmlns="http://www.w3.org/2000/svg">
<path d="M7.82939 18.3905C3.64639 18.1125 0.314409 14.7332 0.0402393 10.4909C-0.0134144 9.66068 -0.0134144 8.80093 0.0402393 7.97072C0.314409 3.72838 3.64639 0.349133 7.82939 0.0710746C9.25648 -0.0237883 10.7464 -0.0235948 12.1706 0.0710746C16.3536 0.349133 19.6856 3.72838 19.9598 7.97072C20.0134 8.80093 20.0134 9.66068 19.9598 10.4909C19.8599 12.036 19.1766 13.4666 18.3721 14.6746C17.905 15.5203 18.2133 16.5758 18.6998 17.4978C19.0506 18.1626 19.226 18.495 19.0852 18.7351C18.9443 18.9752 18.6297 18.9829 18.0006 18.9982C16.7563 19.0285 15.9173 18.6757 15.2513 18.1846C14.8736 17.9061 14.6847 17.7668 14.5546 17.7508C14.4244 17.7348 14.1682 17.8403 13.656 18.0513C13.1956 18.2409 12.661 18.3579 12.1706 18.3905C10.7464 18.4852 9.25648 18.4854 7.82939 18.3905Z" fill="url(#paint0_linear_346_7537)"/>
<path d="M5.5 12.5L7.34189 6.97434C7.43631 6.69107 7.7014 6.5 8 6.5C8.2986 6.5 8.56369 6.69107 8.65811 6.97434L10.5 12.5M13.5 6.5V12.5M6.5 10.5H9.5" stroke="#F2F2F5" stroke-width="1.5" stroke-linecap="round" stroke-linejoin="round"/>
<defs>
<linearGradient id="paint0_linear_346_7537" x1="20.0179" y1="-0.0950056" x2="3.5" y2="23.5" gradientUnits="userSpaceOnUse">
<stop stop-color="#003D98"/>
<stop offset="1" stop-color="#9F159F"/>
</linearGradient>
</defs>
</svg>
