<svg width="24" height="25" viewBox="0 0 24 25" fill="none" xmlns="http://www.w3.org/2000/svg">
<path d="M9.82939 21.3905C5.64639 21.1125 2.31441 17.7332 2.04024 13.4909C1.98659 12.6607 1.98659 11.8009 2.04024 10.9707C2.31441 6.72838 5.64639 3.34913 9.82939 3.07107C11.2565 2.97621 12.7464 2.97641 14.1706 3.07107C18.3536 3.34913 21.6856 6.72838 21.9598 10.9707C22.0134 11.8009 22.0134 12.6607 21.9598 13.4909C21.8599 15.036 21.1766 16.4666 20.3721 17.6746C19.905 18.5203 20.2133 19.5758 20.6998 20.4978C21.0506 21.1626 21.226 21.495 21.0852 21.7351C20.9443 21.9752 20.6297 21.9829 20.0006 21.9982C18.7563 22.0285 17.9173 21.6757 17.2513 21.1846C16.8736 20.9061 16.6847 20.7668 16.5546 20.7508C16.4244 20.7348 16.1682 20.8403 15.656 21.0513C15.1956 21.2409 14.661 21.3579 14.1706 21.3905C12.7464 21.4852 11.2565 21.4854 9.82939 21.3905Z" stroke="#7A7B99" stroke-width="1.5" stroke-linejoin="round"/>
<path d="M7.5 15.5L9.34189 9.97434C9.43631 9.69107 9.7014 9.5 10 9.5C10.2986 9.5 10.5637 9.69107 10.6581 9.97434L12.5 15.5M15.5 9.5V15.5M8.5 13.5H11.5" stroke="#7A7B99" stroke-width="1.5" stroke-linecap="round" stroke-linejoin="round"/>
</svg>
