<svg width="25" height="25" viewBox="0 0 25 25" fill="none" xmlns="http://www.w3.org/2000/svg">
<path d="M13.2 17.38H13.9C15.05 17.38 15.99 16.44 15.99 15.29V14.59H13.2V17.38Z" fill="#003D98"/>
<path d="M9.01001 15.29C9.01001 16.44 9.95001 17.38 11.1 17.38H11.8V14.59H9.01001V15.29Z" fill="#003D98"/>
<path d="M9.01001 12.5V13.2H11.8V10.41H11.1C9.95001 10.41 9.01001 11.35 9.01001 12.5Z" fill="#003D98"/>
<path d="M20.53 7.32L14.78 3.29C13.21 2.19 10.81 2.25 9.3 3.42L4.29 7.33C3.28 8.11 2.5 9.71 2.5 10.97V17.87C2.5 20.42 4.57 22.5 7.11 22.5H17.88C20.42 22.5 22.49 20.43 22.49 17.88V11.1C22.5 9.75 21.63 8.09 20.53 7.32ZM17.38 15.29C17.38 17.21 15.81 18.78 13.89 18.78H11.1C9.18 18.78 7.61 17.22 7.61 15.29V12.5C7.61 10.58 9.18 9.01 11.1 9.01H13.89C15.81 9.01 17.38 10.57 17.38 12.5V15.29Z" fill="#003D98"/>
<path d="M13.9 10.41H13.2V13.2H15.99V12.5C15.99 11.35 15.05 10.41 13.9 10.41Z" fill="#003D98"/>
</svg>
