<svg width="25" height="25" viewBox="0 0 25 25" fill="none" xmlns="http://www.w3.org/2000/svg">
<path d="M9.52 3.34001L4.13 7.54001C3.23 8.24001 2.5 9.73001 2.5 10.86V18.27C2.5 20.59 4.39 22.49 6.71 22.49H18.29C20.61 22.49 22.5 20.59 22.5 18.28V11C22.5 9.79001 21.69 8.24001 20.7 7.55001L14.52 3.22001C13.12 2.24001 10.87 2.29001 9.52 3.34001Z" stroke="#7A7B99" stroke-width="1.5" stroke-linecap="round" stroke-linejoin="round"/>
<path d="M11 18.5H14C15.65 18.5 17 17.15 17 15.5V12.5C17 10.85 15.65 9.5 14 9.5H11C9.35 9.5 8 10.85 8 12.5V15.5C8 17.15 9.35 18.5 11 18.5Z" stroke="#7A7B99" stroke-width="1.5" stroke-linecap="round" stroke-linejoin="round"/>
<path d="M12.5 9.5V18.5" stroke="#7A7B99" stroke-width="1.5" stroke-linecap="round" stroke-linejoin="round"/>
<path d="M8 14H17" stroke="#7A7B99" stroke-width="1.5" stroke-linecap="round" stroke-linejoin="round"/>
</svg>
