<svg width="25" height="25" viewBox="0 0 25 25" fill="none" xmlns="http://www.w3.org/2000/svg">
<path d="M11.75 6.5V20.41C11.75 21.12 11.03 21.61 10.38 21.34C8.52 20.56 6.21 19.88 4.57 19.66L4.26 19.62C3.29 19.5 2.5 18.61 2.5 17.64V5.75C2.5 4.55 3.47 3.58 4.67 3.58H4.74C6.62 3.74 9.39 4.62 11.22 5.61C11.55 5.79 11.75 6.12 11.75 6.5Z" fill="#003D98"/>
<path d="M20.33 3.58H20.27C20.03 3.6 19.77 3.63 19.5 3.68C18.27 3.88 16.81 4.3 15.5 4.82C14.88 5.07 14.3 5.34 13.79 5.61C13.46 5.79 13.25 6.13 13.25 6.5V20.41C13.25 21.12 13.97 21.61 14.62 21.34C16.48 20.56 18.79 19.88 20.43 19.66L20.74 19.62C21.71 19.5 22.5 18.61 22.5 17.64V5.75C22.5 4.55 21.53 3.58 20.33 3.58ZM19.77 14.23C19.77 14.62 19.49 14.79 19.15 14.6L18.09 14.01C17.98 13.95 17.8 13.95 17.68 14.01L16.62 14.6C16.28 14.79 16 14.62 16 14.23V11.16C16 10.7 16.38 10.32 16.84 10.32H18.94C19.4 10.32 19.78 10.7 19.78 11.16V14.23H19.77Z" fill="#003D98"/>
</svg>
