<svg width="25" height="25" viewBox="0 0 25 25" fill="none" xmlns="http://www.w3.org/2000/svg">
<path d="M12.4998 22.58C12.1998 22.58 11.8998 22.51 11.6498 22.37C9.77978 21.35 6.49976 20.27 4.43976 20L4.14978 19.96C2.83978 19.8 1.75977 18.57 1.75977 17.24V5.15999C1.75977 4.36999 2.06977 3.65002 2.63977 3.13002C3.20977 2.61002 3.94974 2.36001 4.72974 2.43001C6.91974 2.61001 10.2398 3.71002 12.1198 4.88002L12.3597 5.02003C12.4297 5.05003 12.5798 5.06003 12.6398 5.02003L12.7997 4.92C13.4697 4.5 14.3097 4.08999 15.2297 3.71999C15.4597 3.62999 15.7197 3.66 15.9297 3.8C16.1397 3.94 16.2598 4.17 16.2598 4.42V7.09999L17.0898 6.55C17.3398 6.38 17.6697 6.38 17.9197 6.55L18.7498 7.09999V3.28004C18.7498 2.92004 19.0097 2.60999 19.3597 2.53999C19.6497 2.48999 19.9398 2.45001 20.1998 2.43001C20.2198 2.43001 20.2998 2.43001 20.3198 2.43001C21.0498 2.37001 21.7997 2.62003 22.3597 3.14003C22.9297 3.66003 23.2397 4.38 23.2397 5.17V17.24C23.2397 18.58 22.1598 19.8 20.8398 19.96L20.5098 20C18.4498 20.27 15.1498 21.36 13.3198 22.37C13.0998 22.51 12.7998 22.58 12.4998 22.58ZM4.47974 3.90999C4.15974 3.90999 3.86977 4.01999 3.63977 4.23C3.38977 4.46 3.24976 4.78999 3.24976 5.15999V17.24C3.24976 17.83 3.75977 18.4 4.32977 18.48L4.62976 18.52C6.87976 18.82 10.3298 19.95 12.3298 21.05C12.4198 21.09 12.5497 21.1 12.5997 21.08C14.6097 19.97 18.0698 18.83 20.3298 18.53L20.6697 18.49C21.2397 18.42 21.7498 17.84 21.7498 17.25V5.18001C21.7498 4.81001 21.6097 4.49001 21.3597 4.25001C21.1097 4.02001 20.7598 3.91001 20.3998 3.93001C20.3698 3.93001 20.2798 3.93001 20.2598 3.93001V8.50001C20.2598 8.78001 20.1097 9.02999 19.8597 9.15999C19.6097 9.28999 19.3198 9.28001 19.0898 9.12001L17.5098 8.07002L15.9297 9.12001C15.6997 9.27001 15.4097 9.28999 15.1597 9.15999C14.9197 9.02999 14.7598 8.78001 14.7598 8.50001V5.57002C14.3298 5.78002 13.9397 5.99002 13.5997 6.19002L13.4398 6.28999C12.8898 6.62999 12.1098 6.63 11.5798 6.3L11.3398 6.15004C9.64978 5.09004 6.56974 4.06999 4.60974 3.90999C4.55974 3.90999 4.51974 3.90999 4.47974 3.90999Z" fill="#7A7B99"/>
<path d="M12.5 21.74C12.09 21.74 11.75 21.4 11.75 20.99V5.98999C11.75 5.57999 12.09 5.23999 12.5 5.23999C12.91 5.23999 13.25 5.57999 13.25 5.98999V20.99C13.25 21.41 12.91 21.74 12.5 21.74Z" fill="#7A7B99"/>
<path d="M19.5 9.24999C19.35 9.24999 19.21 9.20998 19.08 9.11998L17.5 8.07L15.92 9.11998C15.69 9.26998 15.4 9.28996 15.15 9.15996C14.91 9.02996 14.75 8.77999 14.75 8.49999V4.41997C14.75 4.10997 14.94 3.83996 15.22 3.71996C16.6 3.16996 18.11 2.73997 19.38 2.53997C19.6 2.49997 19.82 2.57001 19.99 2.71001C20.16 2.85001 20.25 3.06002 20.25 3.28002V8.49999C20.25 8.77999 20.1 9.02996 19.85 9.15996C19.74 9.21996 19.62 9.24999 19.5 9.24999ZM17.5 6.41997C17.64 6.41997 17.79 6.45998 17.92 6.54998L18.75 7.09996V4.18999C17.95 4.36999 17.08 4.62999 16.25 4.93999V7.09996L17.08 6.54998C17.21 6.45998 17.36 6.41997 17.5 6.41997Z" fill="#7A7B99"/>
</svg>
