<svg width="23" height="22" viewBox="0 0 23 22" fill="none" xmlns="http://www.w3.org/2000/svg">
<path d="M0.5 1.57592C0.5 0.706062 1.22823 0 2.12594 0H20.8741C21.7721 0 22.5 0.706062 22.5 1.57592V20.4243C22.5 21.2945 21.7721 22 20.8741 22H2.12594C1.22832 22 0.5 21.2945 0.5 20.4246V1.57566V1.57592Z" fill="#006699"/>
<path d="M7.18536 18.4114V8.50694H3.89327V18.4114H7.1857H7.18536ZM5.54 7.15488C6.68778 7.15488 7.40235 6.39434 7.40235 5.44387C7.38087 4.47174 6.68778 3.73242 5.56183 3.73242C4.4351 3.73242 3.69922 4.47174 3.69922 5.44378C3.69922 6.39425 4.41353 7.1548 5.51843 7.1548H5.53974L5.54 7.15488ZM9.00758 18.4114H12.2994V12.8809C12.2994 12.5853 12.3209 12.2889 12.4079 12.0777C12.6457 11.486 13.1874 10.8736 14.0971 10.8736C15.288 10.8736 15.7647 11.7818 15.7647 13.1134V18.4114H19.0564V12.7325C19.0564 9.69038 17.4325 8.27473 15.2667 8.27473C13.4909 8.27473 12.7111 9.26723 12.2778 9.94321H12.2997V8.50728H9.00775C9.05072 9.43644 9.00749 18.4117 9.00749 18.4117L9.00758 18.4114Z" fill="white"/>
</svg>
