<svg width="25" height="25" viewBox="0 0 25 25" fill="none" xmlns="http://www.w3.org/2000/svg">
<path d="M12.5 16.25C10.43 16.25 8.75 14.57 8.75 12.5C8.75 10.43 10.43 8.75 12.5 8.75C14.57 8.75 16.25 10.43 16.25 12.5C16.25 14.57 14.57 16.25 12.5 16.25ZM12.5 10.25C11.26 10.25 10.25 11.26 10.25 12.5C10.25 13.74 11.26 14.75 12.5 14.75C13.74 14.75 14.75 13.74 14.75 12.5C14.75 11.26 13.74 10.25 12.5 10.25Z" fill="#7A7B99"/>
<path d="M15.71 22.69C15.5 22.69 15.29 22.66 15.08 22.61C14.46 22.44 13.94 22.05 13.61 21.5L13.49 21.3C12.9 20.28 12.09 20.28 11.5 21.3L11.39 21.49C11.06 22.05 10.54 22.45 9.92 22.61C9.29 22.78 8.64 22.69 8.09 22.36L6.37 21.37C5.76 21.02 5.32 20.45 5.13 19.76C4.95 19.07 5.04 18.36 5.39 17.75C5.68 17.24 5.76 16.78 5.59 16.49C5.42 16.2 4.99 16.03 4.4 16.03C2.94 16.03 1.75 14.84 1.75 13.38V11.62C1.75 10.16 2.94 8.97001 4.4 8.97001C4.99 8.97001 5.42 8.80001 5.59 8.51001C5.76 8.22001 5.69 7.76001 5.39 7.25001C5.04 6.64001 4.95 5.92001 5.13 5.24001C5.31 4.55001 5.75 3.98001 6.37 3.63001L8.1 2.64001C9.23 1.97001 10.72 2.36001 11.4 3.51001L11.52 3.71001C12.11 4.73001 12.92 4.73001 13.51 3.71001L13.62 3.52001C14.3 2.36001 15.79 1.97001 16.93 2.65001L18.65 3.64001C19.26 3.99001 19.7 4.56001 19.89 5.25001C20.07 5.94001 19.98 6.65001 19.63 7.26001C19.34 7.77001 19.26 8.23001 19.43 8.52001C19.6 8.81001 20.03 8.98001 20.62 8.98001C22.08 8.98001 23.27 10.17 23.27 11.63V13.39C23.27 14.85 22.08 16.04 20.62 16.04C20.03 16.04 19.6 16.21 19.43 16.5C19.26 16.79 19.33 17.25 19.63 17.76C19.98 18.37 20.08 19.09 19.89 19.77C19.71 20.46 19.27 21.03 18.65 21.38L16.92 22.37C16.54 22.58 16.13 22.69 15.71 22.69ZM12.5 18.99C13.39 18.99 14.22 19.55 14.79 20.54L14.9 20.73C15.02 20.94 15.22 21.09 15.46 21.15C15.7 21.21 15.94 21.18 16.14 21.06L17.87 20.06C18.13 19.91 18.33 19.66 18.41 19.36C18.49 19.06 18.45 18.75 18.3 18.49C17.73 17.51 17.66 16.5 18.1 15.73C18.54 14.96 19.45 14.52 20.59 14.52C21.23 14.52 21.74 14.01 21.74 13.37V11.61C21.74 10.98 21.23 10.46 20.59 10.46C19.45 10.46 18.54 10.02 18.1 9.25001C17.66 8.48001 17.73 7.47001 18.3 6.49001C18.45 6.23001 18.49 5.92001 18.41 5.62001C18.33 5.32001 18.14 5.08001 17.88 4.92001L16.15 3.93001C15.72 3.67001 15.15 3.82001 14.89 4.26001L14.78 4.45001C14.21 5.44001 13.38 6.00001 12.49 6.00001C11.6 6.00001 10.77 5.44001 10.2 4.45001L10.09 4.25001C9.84 3.83001 9.28 3.68001 8.85 3.93001L7.12 4.93001C6.86 5.08001 6.66 5.33001 6.58 5.63001C6.5 5.93001 6.54 6.24001 6.69 6.50001C7.26 7.48001 7.33 8.49001 6.89 9.26001C6.45 10.03 5.54 10.47 4.4 10.47C3.76 10.47 3.25 10.98 3.25 11.62V13.38C3.25 14.01 3.76 14.53 4.4 14.53C5.54 14.53 6.45 14.97 6.89 15.74C7.33 16.51 7.26 17.52 6.69 18.5C6.54 18.76 6.5 19.07 6.58 19.37C6.66 19.67 6.85 19.91 7.11 20.07L8.84 21.06C9.05 21.19 9.3 21.22 9.53 21.16C9.77 21.1 9.97 20.94 10.1 20.73L10.21 20.54C10.78 19.56 11.61 18.99 12.5 18.99Z" fill="#7A7B99"/>
</svg>
