<svg width="25" height="25" viewBox="0 0 25 25" fill="none" xmlns="http://www.w3.org/2000/svg">
<path d="M20.6 9.72C18.79 9.72 18.05 8.44 18.95 6.87C19.47 5.96 19.16 4.8 18.25 4.28L16.52 3.29C15.73 2.82 14.71 3.1 14.24 3.89L14.13 4.08C13.23 5.65 11.75 5.65 10.84 4.08L10.73 3.89C10.28 3.1 9.26 2.82 8.47 3.29L6.74 4.28C5.83 4.8 5.52 5.97 6.04 6.88C6.95 8.44 6.21 9.72 4.4 9.72C3.36 9.72 2.5 10.57 2.5 11.62V13.38C2.5 14.42 3.35 15.28 4.4 15.28C6.21 15.28 6.95 16.56 6.04 18.13C5.52 19.04 5.83 20.2 6.74 20.72L8.47 21.71C9.26 22.18 10.28 21.9 10.75 21.11L10.86 20.92C11.76 19.35 13.24 19.35 14.15 20.92L14.26 21.11C14.73 21.9 15.75 22.18 16.54 21.71L18.27 20.72C19.18 20.2 19.49 19.03 18.97 18.13C18.06 16.56 18.8 15.28 20.61 15.28C21.65 15.28 22.51 14.43 22.51 13.38V11.62C22.5 10.58 21.65 9.72 20.6 9.72ZM12.5 15.75C10.71 15.75 9.25 14.29 9.25 12.5C9.25 10.71 10.71 9.25 12.5 9.25C14.29 9.25 15.75 10.71 15.75 12.5C15.75 14.29 14.29 15.75 12.5 15.75Z" fill="#003D98"/>
</svg>
